<?xml version="1.0" encoding="UTF-8"?>
<svg width="200" height="200" viewBox="0 0 200 200" fill="none" xmlns="http://www.w3.org/2000/svg">
  <rect width="200" height="200" fill="white"/>
  <path d="M40 80c0-22.1 26.9-40 60-40s60 17.9 60 40v80H40V80z" fill="#8B4513"/>
  <path d="M50 80c0-16.6 22.4-30 50-30s50 13.4 50 30v70H50V80z" fill="#DEB887"/>
  <path d="M60 90c0-11 16.8-20 40-20s40 9 40 20v50H60V90z" fill="#F5DEB3"/>
  <circle cx="80" cy="100" r="5" fill="#8B4513"/>
  <circle cx="120" cy="100" r="5" fill="#8B4513"/>
  <path d="M90 120c0 0 10 5 20 0" stroke="#8B4513" stroke-width="3"/>
</svg> 