<?xml version="1.0" encoding="UTF-8"?>
<svg width="32" height="32" viewBox="0 0 512 512" fill="none" xmlns="http://www.w3.org/2000/svg">
  <path d="M256 460c112.3 0 204-91.7 204-204S368.3 52 256 52 52 143.7 52 256s91.7 204 204 204z" fill="#FFA500"/>
  <path d="M256 52c-112.3 0-204 91.7-204 204s91.7 204 204 204 204-91.7 204-204S368.3 52 256 52zm0 388c-101.5 0-184-82.5-184-184S154.5 72 256 72s184 82.5 184 184-82.5 184-184 184z" fill="#4A2B00"/>
  <path d="M350 180c0 33.1-26.9 60-60 60s-60-26.9-60-60 26.9-60 60-60 60 26.9 60 60z" fill="#4CAF50"/>
  <path d="M290 120c-33.1 0-60 26.9-60 60s26.9 60 60 60 60-26.9 60-60-26.9-60-60-60zm0 100c-22.1 0-40-17.9-40-40s17.9-40 40-40 40 17.9 40 40-17.9 40-40 40z" fill="#2E7D32"/>
  <path d="M230 140c0 33.1-26.9 60-60 60s-60-26.9-60-60 26.9-60 60-60 60 26.9 60 60z" fill="#4CAF50"/>
  <path d="M170 80c-33.1 0-60 26.9-60 60s26.9 60 60 60 60-26.9 60-60-26.9-60-60-60zm0 100c-22.1 0-40-17.9-40-40s17.9-40 40-40 40 17.9 40 40-17.9 40-40 40z" fill="#2E7D32"/>
</svg> 